<svg aria-hidden="true" style="position: absolute; width: 0; height: 0; overflow: hidden;" version="1.1" xmlns="http://www.w3.org/2000/svg" xmlns:xlink="http://www.w3.org/1999/xlink">
<defs>
<symbol id="email_icon" viewBox="0 0 42 32">
<path stroke-linejoin="miter" stroke-linecap="butt" stroke-miterlimit="4" stroke-width="2.9594" d="M40.938 30.521v-29.041h-39.458v29.041h39.458z"></path>
<path stroke-linejoin="miter" stroke-linecap="butt" stroke-miterlimit="4" stroke-width="2.9594" d="M1.847 1.85l17.022 17.249c1.262 1.271 3.558 1.256 4.793 0.012l17.011-17.122"></path>
<path stroke-linejoin="miter" stroke-linecap="butt" stroke-miterlimit="4" stroke-width="2.9594" d="M2.431 29.565l13.042-13.333"></path>
<path stroke-linejoin="miter" stroke-linecap="butt" stroke-miterlimit="4" stroke-width="2.9594" d="M39.837 29.411l-12.691-12.994"></path>
</symbol>
<symbol id="phone_icon" viewBox="0 0 32 32">
<path d="M21.796 28.129c-1.033-0.008-2.032-0.141-2.986-0.384l0.086 0.019c-3.277-0.791-6.651-2.796-9.5-5.648s-4.857-6.226-5.647-9.5c-0.833-3.444-0.239-6.39 1.67-8.299l0.545-0.545c0.477-0.476 1.136-0.771 1.863-0.771s1.386 0.294 1.863 0.771l3.132 3.131c0.476 0.477 0.771 1.136 0.771 1.863s-0.295 1.386-0.771 1.863l-1.85 1.849c0.887 1.556 2.093 3.114 3.519 4.539s2.984 2.633 4.54 3.519l1.849-1.85c0.477-0.477 1.136-0.772 1.863-0.772s1.386 0.295 1.863 0.772l3.131 3.131c0.477 0.477 0.771 1.135 0.771 1.863s-0.295 1.386-0.771 1.863v0l-0.546 0.545c-1.346 1.348-3.208 2.039-5.396 2.039zM7.826 4.875c-0.001 0-0.002 0-0.004 0-0.208 0-0.397 0.085-0.533 0.222l-0 0-0.546 0.545c-1.429 1.429-1.847 3.75-1.176 6.531 0.711 2.946 2.54 6.006 5.151 8.616s5.671 4.438 8.617 5.151c2.781 0.671 5.101 0.254 6.53-1.176l0.545-0.545c0.137-0.137 0.222-0.327 0.222-0.537s-0.085-0.4-0.222-0.537l-3.131-3.131c-0.137-0.137-0.327-0.222-0.537-0.222s-0.4 0.085-0.537 0.222l-2.344 2.344c-0.17 0.17-0.404 0.275-0.663 0.275-0.157 0-0.306-0.039-0.436-0.107l0.005 0.002c-1.922-0.994-3.859-2.441-5.603-4.184s-3.188-3.68-4.184-5.602c-0.066-0.125-0.105-0.274-0.105-0.431 0-0.259 0.105-0.493 0.274-0.663v0l2.345-2.344c0.137-0.137 0.222-0.327 0.222-0.537s-0.085-0.4-0.222-0.537l-3.131-3.132c-0.137-0.137-0.326-0.223-0.535-0.223-0.001 0-0.002 0-0.003 0h0z"></path>
<path d="M22.797 16.858c-0.518 0-0.938-0.42-0.938-0.938v0c-0.004-3.424-2.779-6.2-6.203-6.204h-0c-0.518 0-0.938-0.42-0.938-0.938s0.42-0.938 0.938-0.938v0c4.454 0 8.078 3.625 8.078 8.079 0 0.518-0.42 0.938-0.938 0.938v0z"></path>
<path d="M26.759 16.858c-0.518 0-0.938-0.42-0.938-0.938v0c0-5.606-4.563-10.166-10.166-10.166-0.518 0-0.938-0.42-0.938-0.938s0.42-0.938 0.938-0.938v0c6.639 0 12.041 5.402 12.041 12.041 0 0.518-0.42 0.938-0.938 0.938v0z"></path>
</symbol>
<symbol id="location_icon" viewBox="0 0 32 32">
<path d="M16 0c-6.624 0.007-11.993 5.376-12 11.999v0.001c0 10.836 10.313 19.211 10.75 19.563 0.339 0.273 0.775 0.438 1.25 0.438s0.911-0.165 1.254-0.441l-0.004 0.003c0.438-0.352 10.75-8.727 10.75-19.563-0.007-6.624-5.376-11.993-11.999-12h-0.001zM16 27.316c-2.527-2.414-8-8.438-8-15.316 0-4.418 3.582-8 8-8s8 3.582 8 8v0c0 6.879-5.473 12.902-8 15.316z"></path>
<path d="M16 8c-2.209 0-4 1.791-4 4s1.791 4 4 4c2.209 0 4-1.791 4-4v0c-0.003-2.208-1.792-3.997-4-4h-0z"></path>
</symbol>
<symbol id="github_icon" viewBox="0 0 32 32">
<path d="M16 3c-7.178 0.002-12.996 5.822-12.996 13 0 5.947 3.993 10.961 9.444 12.508l0.092 0.022c0.105 0.041 0.226 0.064 0.352 0.064 0.552 0 1-0.448 1-1 0-0.489-0.352-0.897-0.816-0.983l-0.006-0.001c-4.703-1.319-8.095-5.568-8.095-10.609 0-6.075 4.925-11 11-11s11 4.925 11 11c0 4.6-2.823 8.54-6.832 10.183l-0.073 0.027c0.012-0.227 0.018-0.493 0.018-0.76 0-1.119-0.116-2.21-0.336-3.263l0.018 0.103c2.831-0.644 4.912-3.14 4.912-6.121 0-0.059-0.001-0.119-0.002-0.177l0 0.009c0.006-0.101 0.009-0.219 0.009-0.338 0-1.315-0.395-2.538-1.074-3.556l0.015 0.024c0.034-0.26 0.053-0.561 0.053-0.866 0-0.896-0.166-1.753-0.47-2.542l0.016 0.049c-0.137-0.4-0.51-0.682-0.948-0.682-0.054 0-0.106 0.004-0.158 0.012l0.006-0.001c-1.273 0.178-2.414 0.631-3.398 1.298l0.028-0.018c-0.824-0.228-1.773-0.366-2.752-0.38l-0.008-0c-1.079 0.029-2.108 0.184-3.092 0.451l0.092-0.021c-0.928-0.715-2.1-1.155-3.374-1.18l-0.006-0c-0.018-0.001-0.038-0.002-0.059-0.002-0.431 0-0.798 0.273-0.939 0.655l-0.002 0.007c-0.263 0.71-0.416 1.531-0.416 2.387 0 0.283 0.017 0.562 0.049 0.836l-0.003-0.033c-0.66 1.063-1.052 2.352-1.052 3.733 0 0.059 0.001 0.117 0.002 0.176l-0-0.009c0.080 3.019 2.156 5.531 4.954 6.27l0.046 0.010c-0.055 0.211-0.108 0.479-0.146 0.751l-0.004 0.039c-1 0.060-1.58-0.55-2.32-1.48-0.436-0.724-1.112-1.267-1.916-1.523l-0.024-0.007c-0.053-0.010-0.114-0.016-0.176-0.016-0.473 0-0.869 0.328-0.973 0.769l-0.001 0.007c-0.015 0.065-0.024 0.14-0.024 0.216 0 0.457 0.307 0.843 0.727 0.962l0.007 0.002c0.16 0 0.55 0.52 0.77 0.81 0.798 1.284 2.163 2.15 3.736 2.249l0.014 0.001c0.463-0.001 0.911-0.066 1.334-0.188l-0.034 0.008c0.111-0.033 0.207-0.081 0.293-0.142l-0.003 0.002c0.073-0.058 0.133-0.127 0.178-0.206l0.002-0.003c0.032-0.025 0.058-0.055 0.079-0.089l0.001-0.001c0.024-0.048 0.044-0.105 0.059-0.164l0.001-0.006c0.021-0.054 0.042-0.121 0.058-0.19l0.002-0.010c-0-0.006-0-0.013-0-0.021 0-0.69 0.17-1.341 0.471-1.912l-0.011 0.022c0.149-0.174 0.24-0.401 0.24-0.65 0-0.552-0.448-1-1-1-0 0-0 0-0 0v0c-2.398-0.14-4.295-2.096-4.34-4.506l-0-0.004c-0.003-0.067-0.005-0.145-0.005-0.224 0-1.039 0.328-2.002 0.885-2.791l-0.010 0.015c0.157-0.176 0.254-0.409 0.254-0.666 0-0.058-0.005-0.115-0.014-0.17l0.001 0.006c-0.055-0.278-0.086-0.598-0.086-0.925s0.031-0.647 0.091-0.956l-0.005 0.031c0.682 0.148 1.272 0.471 1.741 0.921l-0.001-0.001c0.179 0.172 0.424 0.278 0.692 0.278 0.11 0 0.216-0.018 0.315-0.050l-0.007 0.002c0.874-0.259 1.883-0.428 2.926-0.469l0.024-0.001c0.954 0.025 1.862 0.18 2.72 0.449l-0.070-0.019c0.103 0.039 0.223 0.062 0.347 0.062 0.25 0 0.479-0.092 0.654-0.243l-0.001 0.001c0.558-0.463 1.23-0.809 1.966-0.993l0.034-0.007c0.071 0.287 0.113 0.616 0.113 0.955s-0.041 0.668-0.118 0.983l0.006-0.028c-0.015 0.067-0.024 0.144-0.024 0.223 0 0.308 0.132 0.584 0.343 0.776l0.001 0.001c0.465 0.645 0.744 1.451 0.744 2.323 0 0.182-0.012 0.362-0.036 0.538l0.002-0.021c0.002 0.051 0.003 0.111 0.003 0.172 0 2.369-1.921 4.29-4.29 4.29-0.043 0-0.087-0.001-0.13-0.002l0.006 0c-0.001 0-0.002 0-0.003 0-0.427 0-0.791 0.267-0.934 0.643l-0.002 0.007c-0.041 0.105-0.065 0.227-0.065 0.354 0 0.301 0.133 0.571 0.344 0.755l0.001 0.001c0.59 0.51 0.5 4 0.47 5.36-0 0.008-0 0.016-0 0.025 0 0.317 0.148 0.6 0.378 0.783l0.002 0.002c0.167 0.131 0.381 0.21 0.613 0.21 0.002 0 0.005 0 0.007-0h-0c0.038 0.005 0.081 0.007 0.125 0.007s0.087-0.003 0.13-0.008l-0.005 0c5.678-1.476 9.803-6.557 9.803-12.601 0-7.18-5.82-13-13-13-0.047 0-0.093 0-0.14 0.001l0.007-0z"></path>
</symbol>
<symbol id="discord_icon" viewBox="0 0 32 32">
<path d="M10.55 25c-1.25 0.63-5.55-1.62-6.73-2.71-0.32-1.69 2.18-11.97 3.89-13.68s5.29-1.71 5.29-1.71c0.552 0 1-0.448 1-1s-0.448-1-1-1v0c-0.18 0-4.44 0-6.71 2.29-1.86 1.87-5.73 14.68-4 16.42 0.84 0.83 4.9 3.48 7.75 3.48 0.025 0.001 0.054 0.001 0.084 0.001 0.482 0 0.938-0.111 1.344-0.309l-0.018 0.008c0.327-0.169 0.546-0.504 0.546-0.891 0-0.164-0.039-0.318-0.109-0.454l0.003 0.006c-0.168-0.331-0.505-0.554-0.895-0.554-0.162 0-0.315 0.039-0.45 0.107l0.006-0.003z"></path>
<path d="M25.71 7.19c-2.27-2.26-6.53-2.29-6.71-2.29-0.552 0-1 0.448-1 1s0.448 1 1 1v0c1 0 3.89 0.31 5.29 1.71 1.71 1.71 4.21 12 3.89 13.68-1.18 1.090-5.48 3.34-6.73 2.71-0.13-0.066-0.283-0.104-0.445-0.104-0.39 0-0.728 0.223-0.893 0.549l-0.003 0.006c-0.067 0.131-0.106 0.285-0.106 0.449 0 0.387 0.22 0.722 0.541 0.889l0.006 0.003c0.388 0.19 0.844 0.301 1.326 0.301 0.030 0 0.059-0 0.088-0.001l-0.004 0c2.85 0 6.91-2.65 7.75-3.48 1.73-1.74-2.14-14.55-4-16.42z"></path>
<path d="M14 17.4c0 1.243-0.895 2.25-2 2.25s-2-1.007-2-2.25c0-1.243 0.895-2.25 2-2.25s2 1.007 2 2.25z"></path>
<path d="M22 17.4c0 1.243-0.895 2.25-2 2.25s-2-1.007-2-2.25c0-1.243 0.895-2.25 2-2.25s2 1.007 2 2.25z"></path>
<path d="M24 11.9c0.001 0 0.001 0 0.002 0 0.356 0 0.668-0.186 0.846-0.466l0.002-0.004c0.096-0.151 0.152-0.334 0.152-0.531 0-0.357-0.187-0.67-0.468-0.847l-0.004-0.002c-8.43-5.27-16.71-0.22-17.060 0-0.285 0.18-0.472 0.493-0.472 0.85 0 0.553 0.448 1.002 1.002 1.002 0.196 0 0.38-0.056 0.534-0.154l-0.004 0.002c0.3-0.19 7.58-4.6 14.94 0 0.15 0.094 0.332 0.15 0.527 0.15 0.001 0 0.002 0 0.003 0h-0z"></path>
<path d="M23.090 23.32c0.054 0.111 0.121 0.207 0.201 0.291l-0-0.001c0.181 0.183 0.432 0.296 0.71 0.296s0.529-0.113 0.71-0.296l0-0c0.732-0.687 1.212-1.636 1.289-2.697l0.001-0.013c0-0.001 0-0.001 0-0.002 0-0.392-0.226-0.732-0.554-0.895l-0.006-0.003c-0.128-0.063-0.278-0.1-0.436-0.1-0.232 0-0.446 0.079-0.616 0.212l0.002-0.002c-2.201 1.801-5.043 2.892-8.14 2.892-0.088 0-0.176-0.001-0.263-0.003l0.013 0c-0.055 0.001-0.119 0.001-0.184 0.001-3.114 0-5.971-1.095-8.21-2.92l0.024 0.019c-0.168-0.131-0.381-0.21-0.613-0.21-0.167 0-0.324 0.041-0.462 0.113l0.006-0.003c-0.334 0.166-0.56 0.506-0.56 0.898 0 0.001 0 0.001 0 0.002v-0c0.078 1.074 0.558 2.023 1.288 2.708l0.002 0.002c0.181 0.183 0.432 0.296 0.71 0.296s0.529-0.113 0.71-0.296l0-0c0.079-0.083 0.146-0.179 0.197-0.283l0.003-0.007c1.95 1.058 4.27 1.68 6.735 1.68 0.005 0 0.011 0 0.016 0h0.679c0.004 0 0.010 0 0.015 0 2.465 0 4.785-0.622 6.811-1.718l-0.076 0.038z"></path>
</symbol>
<symbol id="telegram_icon" viewBox="0 0 32 32">
<path stroke-linejoin="round" stroke-linecap="round" stroke-miterlimit="4" stroke-width="2" d="M11 16.863l11.238 9.887c0.176 0.156 0.408 0.251 0.663 0.251 0.473 0 0.869-0.328 0.973-0.769l0.001-0.007 4.7-20.525c0.015-0.065 0.024-0.141 0.024-0.218 0-0.552-0.448-1-1-1-0.13 0-0.254 0.025-0.368 0.070l0.007-0.002-23.075 9.063c-0.925 0.363-0.8 1.713 0.175 1.912z"></path>
<path stroke-linejoin="round" stroke-linecap="round" stroke-miterlimit="4" stroke-width="2" d="M11 16.863l17.012-12.287"></path>
<path stroke-linejoin="round" stroke-linecap="round" stroke-miterlimit="4" stroke-width="2" d="M16.613 21.8l-3.9 3.9c-0.181 0.184-0.434 0.298-0.713 0.298-0.552 0-0.999-0.447-1-0.998v-8.138"></path>
</symbol>
<symbol id="rs_icon" viewBox="0 0 89 32">
<path d="M44.353 9.885l4.235-0.266q0.139 1.032 0.561 1.572 0.689 0.875 1.965 0.875 0.952 0 1.469-0.446c0.31-0.244 0.509-0.617 0.515-1.036v-0.001c-0.006-0.403-0.192-0.762-0.481-1l-0.002-0.002q-0.483-0.441-2.279-0.836-2.928-0.657-4.177-1.749c-0.772-0.65-1.259-1.616-1.259-2.697 0-0.029 0-0.059 0.001-0.088l-0 0.004c0.003-0.782 0.244-1.506 0.653-2.107l-0.008 0.013c0.476-0.691 1.134-1.226 1.904-1.542l0.028-0.010q1.289-0.565 3.544-0.565 2.761 0 4.21 1.028t1.725 3.267l-4.196 0.245q-0.161-0.966-0.702-1.414t-1.482-0.446c-0.517 0-0.907 0.111-1.168 0.33-0.24 0.186-0.393 0.474-0.393 0.798 0 0.003 0 0.005 0 0.008v-0c0.008 0.253 0.132 0.475 0.32 0.617l0.002 0.001q0.314 0.285 1.493 0.532 2.919 0.628 4.188 1.272t1.836 1.596c0.361 0.594 0.575 1.312 0.575 2.080 0 0.019-0 0.037-0 0.056l0-0.003c0 0.007 0 0.015 0 0.023 0 0.943-0.286 1.82-0.776 2.548l0.010-0.016c-0.525 0.783-1.254 1.392-2.111 1.76l-0.031 0.012q-1.377 0.604-3.469 0.604-3.674 0-5.090-1.414t-1.611-3.6zM1.010 14.657v-14.411h7.419q2.063 0 3.154 0.353c0.732 0.239 1.337 0.699 1.752 1.3l0.007 0.011c0.422 0.623 0.673 1.39 0.673 2.217 0 0.041-0.001 0.082-0.002 0.123l0-0.006c0.001 0.031 0.001 0.067 0.001 0.103 0 0.722-0.192 1.4-0.527 1.985l0.010-0.019c-0.348 0.588-0.822 1.066-1.388 1.409l-0.018 0.010c-0.451 0.254-0.974 0.451-1.528 0.564l-0.035 0.006c0.441 0.132 0.825 0.312 1.175 0.54l-0.017-0.011c0.267 0.223 0.502 0.469 0.707 0.739l0.008 0.011c0.223 0.261 0.429 0.551 0.606 0.86l0.015 0.028 2.155 4.188h-5.030l-2.377-4.409q-0.453-0.855-0.805-1.111c-0.298-0.209-0.668-0.334-1.067-0.334-0.009 0-0.018 0-0.026 0h-0.395v5.853zM5.476 6.082h1.881c0.435-0.033 0.837-0.103 1.225-0.207l-0.046 0.011c0.297-0.058 0.549-0.222 0.719-0.45l0.002-0.003c0.175-0.223 0.28-0.507 0.28-0.816 0-0.006-0-0.013-0-0.019v0.001c0.002-0.024 0.002-0.052 0.002-0.080 0-0.394-0.172-0.747-0.444-0.99l-0.001-0.001q-0.441-0.374-1.661-0.374h-1.959zM0 26.989l4.235-0.264q0.139 1.032 0.561 1.572 0.681 0.875 1.97 0.875 0.952 0 1.469-0.448c0.31-0.244 0.509-0.617 0.515-1.036v-0.001c-0.006-0.403-0.192-0.762-0.481-1l-0.002-0.002q-0.483-0.441-2.279-0.834-2.928-0.66-4.177-1.749c-0.772-0.651-1.259-1.618-1.259-2.699 0-0.029 0-0.058 0.001-0.087l-0 0.004c0.004-0.782 0.244-1.506 0.653-2.107l-0.008 0.013c0.476-0.691 1.134-1.226 1.904-1.542l0.028-0.010q1.289-0.565 3.544-0.565 2.761 0 4.21 1.028t1.725 3.267l-4.188 0.246q-0.161-0.966-0.702-1.416t-1.48-0.441q-0.775 0-1.168 0.322c-0.24 0.186-0.393 0.474-0.393 0.798 0 0.003 0 0.005 0 0.008v-0c0.008 0.253 0.132 0.476 0.32 0.619l0.002 0.001q0.314 0.285 1.493 0.53 2.919 0.628 4.188 1.272t1.836 1.596c0.361 0.594 0.575 1.313 0.575 2.081 0 0.018-0 0.036-0 0.054l0-0.003c0 0.007 0 0.016 0 0.024 0 0.943-0.286 1.819-0.775 2.547l0.010-0.016c-0.525 0.783-1.254 1.392-2.111 1.76l-0.031 0.012q-1.377 0.604-3.469 0.604-3.674 0-5.090-1.414t-1.625-3.597zM26.255 25.86l3.901 1.179c-0.233 1.045-0.663 1.964-1.252 2.757l0.014-0.019c-0.545 0.713-1.249 1.277-2.060 1.647l-0.034 0.014q-1.253 0.559-3.189 0.559-2.348 0-3.837-0.681t-2.577-2.402q-1.082-1.719-1.081-4.399 0-3.573 1.901-5.494t5.38-1.92q2.724 0 4.28 1.102t2.313 3.383l-3.93 0.875c-0.101-0.367-0.248-0.689-0.44-0.979l0.008 0.013c-0.239-0.329-0.545-0.594-0.899-0.779l-0.014-0.007c-0.341-0.174-0.745-0.276-1.172-0.276-0.013 0-0.027 0-0.040 0l0.002-0q-1.512 0-2.318 1.218-0.612 0.904-0.61 2.836 0 2.394 0.728 3.283t2.044 0.887q1.276 0 1.933-0.717t0.95-2.079zM33.585 17.351h4.45v5.038h4.864v-5.038h4.47v14.405h-4.47v-5.823h-4.864v5.828h-4.45zM50.14 24.562q0-3.524 1.965-5.493t5.476-1.965q3.595 0 5.541 1.933t1.951 5.407q0 2.527-0.85 4.143c-0.563 1.070-1.403 1.928-2.426 2.499l-0.031 0.016q-1.611 0.899-4.004 0.899-2.435 0-4.027-0.776c-1.099-0.553-1.983-1.395-2.573-2.427l-0.016-0.030q-1.008-1.678-1.007-4.206zM54.59 24.583q0 2.183 0.805 3.134t2.207 0.952q1.435 0 2.221-0.933t0.786-3.35q0-2.034-0.821-2.973t-2.226-0.937c-0.029-0.001-0.063-0.002-0.097-0.002-0.822 0-1.558 0.367-2.053 0.945l-0.003 0.004q-0.817 0.966-0.818 3.16z"></path>
<path d="M63.185 24.562q0-3.524 1.965-5.493t5.476-1.965q3.598 0 5.542 1.933t1.944 5.409q0 2.527-0.849 4.143c-0.564 1.069-1.403 1.928-2.426 2.499l-0.031 0.016q-1.611 0.899-4.004 0.899-2.437 0-4.027-0.776c-1.099-0.553-1.984-1.395-2.574-2.427l-0.016-0.030q-1.002-1.68-1.002-4.207zM67.637 24.583q0 2.183 0.805 3.134t2.21 0.954q1.435 0 2.221-0.933t0.786-3.35q0-2.034-0.82-2.973t-2.226-0.937c-0.031-0.001-0.067-0.002-0.104-0.002-0.821 0-1.556 0.366-2.051 0.944l-0.003 0.004q-0.82 0.966-0.818 3.16z"></path>
<path d="M77.649 17.351h4.452v10.858h6.947v3.544h-11.399z"></path>
</symbol>
</defs>
</svg>
